# xmcd
#
# Track frame offsets:
#   150
#   13712
#   27360
#   41405
#   54307
#   66845
#   78335
#   89250
#   102630
#   113742
#   126177
#   137972
#   150117
#   164535
#   175480
#   187855
#   201122
#   212190
#   225285
#   236652
#   250485
#
# Disc length: 3510 seconds
#
# Revision: 0
# Processed by: cddbd v1.5PL3 Copyright (c) Steve Scherf et al.
# Submitted via: Media_Universe 3.0
#
DISCID=190db415
DTITLE=Hank Williams - The Complete Hank Williams [disc 03]
DYEAR=1998
DGENRE=Country
TTITLE0=Too Many Parties and Too Many Pals
TTITLE1=Beyond the Sunset
TTITLE2=The Funeral
TTITLE3=Everything's Okay
TTITLE4=They'll Never Take Her Love From Me
TTITLE5=Nobody's Lonesome For Me
TTITLE6=Moanin' the Blues
TTITLE7=Help Me Understand
TTITLE8=No, No Joe
TTITLE9=Cold, Cold Heart
TTITLE10=Dear John
TTITLE11=Just Waitin'
TTITLE12=Men With Broken Hearts
TTITLE13=I Can't Help It (If I'm Still In Love With You)
TTITLE14=Howlin' At The Moon
TTITLE15=Hey, Good Lookin'
TTITLE16=My Heart Would Know
TTITLE17=The Pale Horse And His Rider
TTITLE18=A Home In Heaven
TTITLE19=Ramblin' Man
TTITLE20=Pictures From Life's Other Side
EXTD=
EXTT0=
EXTT1=
EXTT2=
EXTT3=
EXTT4=
EXTT5=
EXTT6=
EXTT7=
EXTT8=
EXTT9=
EXTT10=
EXTT11=
EXTT12=
EXTT13=
EXTT14=
EXTT15=
EXTT16=
EXTT17=
EXTT18=
EXTT19=
EXTT20=
PLAYORDER=
